<svg xmlns="http://www.w3.org/2000/svg" xmlns:xlink="http://www.w3.org/1999/xlink" version="1.1" id="Calque_1" x="0px" y="0px" width="100px" height="100px" viewBox="0 0 100 100" enable-background="new 0 0 100 100" xml:space="preserve">
<path d="M15.433,47.313c-0.818,0.585-1.818,0.931-2.898,0.931c-1.094,0-2.106-0.354-2.931-0.953H9.568  c-4.077,0.78-4.19,5.045-4.19,5.045s1.971,3.902,6.974,4.102c5.003,0.203,6.974-4.101,6.974-4.101  C19.166,48.527,16.039,47.489,15.433,47.313z"/>
<circle cx="12.535" cy="43.251" r="3.96"/>
<path d="M91.144,47.313c-0.817,0.585-1.818,0.931-2.898,0.931c-1.094,0-2.105-0.354-2.93-0.953h-0.036  c-4.077,0.78-4.19,5.045-4.19,5.045s1.972,3.902,6.974,4.102c5.004,0.203,6.974-4.101,6.974-4.101  C94.877,48.527,91.75,47.489,91.144,47.313z"/>
<circle cx="88.245" cy="43.251" r="3.96"/>
<path d="M24.34,25.937c-0.818,0.585-1.818,0.931-2.898,0.931c-1.094,0-2.106-0.354-2.931-0.954h-0.036  c-4.077,0.78-4.19,5.045-4.19,5.045s1.971,3.902,6.974,4.102c5.003,0.203,6.974-4.101,6.974-4.101  C28.073,27.15,24.946,26.112,24.34,25.937z"/>
<circle cx="21.442" cy="21.874" r="3.96"/>
<path d="M82.236,25.937c-0.817,0.585-1.818,0.931-2.898,0.931c-1.094,0-2.105-0.354-2.93-0.954h-0.036  c-4.077,0.78-4.19,5.045-4.19,5.045s1.972,3.902,6.974,4.102c5.004,0.203,6.974-4.101,6.974-4.101  C85.97,27.15,82.843,26.112,82.236,25.937z"/>
<circle cx="79.338" cy="21.874" r="3.96"/>
<path d="M24.34,69.581c-0.818,0.586-1.818,0.931-2.898,0.931c-1.094,0-2.106-0.354-2.931-0.953h-0.036  c-4.077,0.78-4.19,5.045-4.19,5.045s1.971,3.902,6.974,4.103c5.003,0.202,6.974-4.102,6.974-4.102  C28.073,70.796,24.946,69.757,24.34,69.581z"/>
<circle cx="21.442" cy="65.519" r="3.96"/>
<path d="M82.236,69.581c-0.817,0.586-1.818,0.931-2.898,0.931c-1.094,0-2.105-0.354-2.93-0.953h-0.036  c-4.077,0.78-4.19,5.045-4.19,5.045s1.972,3.902,6.974,4.103c5.004,0.202,6.974-4.102,6.974-4.102  C85.97,70.796,82.843,69.757,82.236,69.581z"/>
<circle cx="79.338" cy="65.519" r="3.96"/>
<circle cx="50.023" cy="48.239" r="6.273"/>
<path d="M56.32,41.941c0.107,0.106,0.199,0.221,0.299,0.331l15.447-15.447l-0.63-0.63L55.99,41.642  C56.101,41.742,56.214,41.834,56.32,41.941z"/>
<path d="M58.929,48.5c0.001,0.152-0.015,0.5-0.021,0.5H81v-1H58.906C58.913,48,58.929,48.35,58.929,48.5z"/>
<path d="M56.32,54.536c-0.107,0.108-0.325,0.305-0.33,0.302l15.446,15.446l0.63-0.63L56.618,54.206  C56.624,54.211,56.427,54.431,56.32,54.536z"/>
<path d="M43.725,54.538c-0.108-0.107-0.305-0.327-0.301-0.33L27.978,69.654l0.628,0.63l15.449-15.448  C44.05,54.841,43.831,54.645,43.725,54.538z"/>
<path d="M41.115,48.502c0-0.152,0.016-0.502,0.021-0.502H19v1h22.138C41.131,49,41.115,48.65,41.115,48.502z"/>
<path d="M43.722,41.941c0.109-0.107,0.326-0.305,0.332-0.3L28.608,26.195l-0.63,0.63l15.447,15.447  C43.419,42.266,43.617,42.047,43.722,41.941z"/>
</svg>